<svg width="57.867mm" height="10.32mm" version="1.1" viewBox="0 0 57.867 10.32" xmlns="http://www.w3.org/2000/svg">
 <g transform="translate(-53.294 -76.799)">
  <g stroke-width=".26458" aria-label="++shopping">
   <g transform="translate(-2.4568 4.2522)">
    <path d="m58.841 76.562h2.0671v0.91984h-2.0671v2.3719h-1.018v-2.3719h-2.0722v-0.91984h2.0722v-2.1859h1.018z" fill="#ffbfbf"/>
    <path d="m64.753 76.562h2.0671v0.91984h-2.0671v2.3719h-1.018v-2.3719h-2.0722v-0.91984h2.0722v-2.1859h1.018z" fill="#fff"/>
    <g fill="#ffbfbf">
     <path d="m71.936 76.774h-0.76481l-0.16536-0.67179q-0.18604-0.1757-0.47026-0.27905-0.27905-0.10852-0.63562-0.10852-0.5426 0-0.80615 0.23771-0.26355 0.23771-0.26355 0.57361 0 0.33073 0.23254 0.52193t0.94568 0.34106q1.0594 0.22738 1.5761 0.62012 0.51676 0.38757 0.51676 1.0439 0 0.74414-0.60461 1.2041-0.59945 0.45992-1.571 0.45992-0.63562 0-1.142-0.14469-0.50643-0.14986-0.90434-0.42891l-0.0052-1.2764h0.76481l0.1912 0.74931q0.1757 0.1602 0.47542 0.23254 0.30489 0.07235 0.62012 0.07235 0.5426 0 0.84749-0.21704 0.31006-0.22221 0.31006-0.57878 0-0.3359-0.25838-0.55294-0.25321-0.21704-0.96635-0.37724-1.018-0.22221-1.5348-0.60462-0.51676-0.3824-0.51676-1.0335 0-0.68213 0.57878-1.1627 0.58394-0.48059 1.5141-0.48059 0.63562 0 1.142 0.16536 0.50643 0.16536 0.84233 0.45992z"/>
     <path d="m72.912 79.958 0.84233-0.14469v-6.4647l-0.84233-0.14469v-0.65629h1.8604v3.2143q0.28939-0.40308 0.70797-0.62528t0.93018-0.22221q0.89917 0 1.3953 0.53744t0.49609 1.6536v2.7078l0.84233 0.14469v0.65112h-2.7027v-0.65112l0.84233-0.14469v-2.7182q0-0.69246-0.29972-1.0232-0.29456-0.33073-0.88367-0.33073-0.41858 0-0.76481 0.20154-0.34106 0.19637-0.56327 0.53744v3.3331l0.84232 0.14469v0.65112h-2.7027z"/>
     <path d="m79.858 77.761q0-1.2402 0.67179-2.0412 0.67179-0.80615 1.8242-0.80615 1.1576 0 1.8293 0.80098 0.67696 0.80098 0.67696 2.0464v0.11369q0 1.2506-0.67179 2.0464-0.67179 0.79582-1.8242 0.79582-1.1627 0-1.8345-0.79582-0.67179-0.80098-0.67179-2.0464zm1.018 0.11369q0 0.88883 0.37207 1.4676 0.37724 0.57878 1.1162 0.57878 0.72347 0 1.1007-0.57878t0.37724-1.4676v-0.11369q0-0.8785-0.37724-1.4624-0.37724-0.58394-1.111-0.58394t-1.1059 0.58394q-0.37207 0.58394-0.37207 1.4624z"/>
     <path d="m85.661 82.102 0.84233-0.14469v-6.1392l-0.84233-0.14469v-0.65629h1.7157l0.09302 0.68213q0.27905-0.38241 0.67696-0.58394 0.40308-0.20154 0.93018-0.20154 1.0387 0 1.6123 0.82682 0.57878 0.82166 0.57878 2.1756v0.10852q0 1.2092-0.57878 1.9534-0.57878 0.73897-1.5968 0.73897-0.51676 0-0.9095-0.17053-0.38757-0.1757-0.66146-0.51676v1.9275l0.84233 0.14469v0.65629h-2.7027zm4.5837-4.1858q0-0.95601-0.37207-1.5658-0.37207-0.60978-1.1059-0.60978-0.43408 0-0.74414 0.19637-0.31006 0.19637-0.50126 0.53743v2.7233q0.1912 0.34623 0.49609 0.53744 0.31006 0.18604 0.75964 0.18604 0.72347 0 1.0955-0.5271 0.37207-0.5271 0.37207-1.3694z"/>
    </g>
    <g fill="#fff">
     <path d="m92.069 82.102 0.84233-0.14469v-6.1392l-0.84233-0.14469v-0.65629h1.7157l0.09302 0.68213q0.27905-0.38241 0.67696-0.58394 0.40308-0.20154 0.93018-0.20154 1.0387 0 1.6123 0.82682 0.57878 0.82166 0.57878 2.1756v0.10852q0 1.2092-0.57878 1.9534-0.57878 0.73897-1.5968 0.73897-0.51676 0-0.9095-0.17053-0.38757-0.1757-0.66146-0.51676v1.9275l0.84233 0.14469v0.65629h-2.7027zm4.5837-4.1858q0-0.95601-0.37207-1.5658-0.37207-0.60978-1.1059-0.60978-0.43408 0-0.74414 0.19637-0.31006 0.19637-0.50126 0.53743v2.7233q0.1912 0.34623 0.49609 0.53744 0.31006 0.18604 0.75964 0.18604 0.72347 0 1.0955-0.5271 0.37207-0.5271 0.37207-1.3694z"/>
     <path d="m98.601 79.958 0.84232-0.14469v-3.9946l-0.84232-0.14469v-0.65629h1.8604v4.7956l0.84232 0.14469v0.65112h-2.7027zm1.8604-6.3717h-1.018v-1.0387h1.018z"/>
     <path d="m101.92 79.958 0.84233-0.14469v-3.9946l-0.84233-0.14469v-0.65629h1.7518l0.0724 0.83199q0.27905-0.44442 0.69763-0.6873 0.42375-0.24805 0.96118-0.24805 0.90434 0 1.4004 0.53227 0.4961 0.5271 0.4961 1.633v2.7337l0.84232 0.14469v0.65112h-2.7027v-0.65112l0.84232-0.14469v-2.713q0-0.73897-0.29455-1.049-0.28939-0.31006-0.88884-0.31006-0.43925 0-0.78031 0.21187-0.3359 0.21187-0.53744 0.57878v3.2815l0.84233 0.14469v0.65112h-2.7027z"/>
     <path d="m108.86 77.916q0-1.3488 0.58911-2.1756t1.6278-0.82682q0.5271 0 0.92501 0.20671t0.66662 0.59945l0.093-0.7028h0.85783v5.519q0 1.0852-0.60462 1.7053-0.60461 0.62528-1.7208 0.62528-0.40308 0-0.87333-0.11369-0.47026-0.10852-0.82683-0.29972l0.26355-0.79065q0.28423 0.14986 0.6718 0.24805 0.38757 0.09819 0.75447 0.09819 0.68213 0 0.99736-0.3824 0.32039-0.38241 0.32039-1.0904v-0.53227q-0.27388 0.3514-0.65629 0.53227-0.3824 0.18087-0.8785 0.18087-1.0284 0-1.6175-0.74414-0.58911-0.74414-0.58911-1.9482zm1.018 0.10852q0 0.84233 0.35656 1.3539 0.35657 0.5116 1.0852 0.5116 0.45992 0 0.76998-0.20671 0.31006-0.21187 0.51159-0.59428v-2.5735q-0.19637-0.35657-0.51159-0.56327-0.31523-0.21187-0.75965-0.21187-0.72863 0-1.0904 0.60978-0.36173 0.60978-0.36173 1.5658z"/>
    </g>
   </g>
  </g>
 </g>
</svg>
