<svg width="66" height="12" viewBox="0 0 66 12" fill="none" xmlns="http://www.w3.org/2000/svg">
<path d="M6.17578 4.24805V5.71875H0.328125V4.24805H6.17578ZM4.05469 1.93359V8.14453H2.45508V1.93359H4.05469Z" fill="#FFBFBF"/>
<path d="M12.7148 4.24805V5.71875H6.86719V4.24805H12.7148ZM10.5938 1.93359V8.14453H8.99414V1.93359H10.5938ZM44.8242 3.87891V11.4375H43.1367V2.66016H44.7012L44.8242 3.87891ZM48.8379 5.75977V5.88281C48.8379 6.34375 48.7832 6.77148 48.6738 7.16602C48.5684 7.56055 48.4121 7.9043 48.2051 8.19727C47.998 8.48633 47.7402 8.71289 47.4316 8.87695C47.127 9.03711 46.7754 9.11719 46.377 9.11719C45.9902 9.11719 45.6543 9.03906 45.3691 8.88281C45.084 8.72656 44.8438 8.50781 44.6484 8.22656C44.457 7.94141 44.3027 7.61133 44.1855 7.23633C44.0684 6.86133 43.9785 6.45898 43.916 6.0293V5.70703C43.9785 5.24609 44.0684 4.82422 44.1855 4.44141C44.3027 4.05469 44.457 3.7207 44.6484 3.43945C44.8438 3.1543 45.082 2.93359 45.3633 2.77734C45.6484 2.62109 45.9824 2.54297 46.3652 2.54297C46.7676 2.54297 47.1211 2.61914 47.4258 2.77148C47.7344 2.92383 47.9922 3.14258 48.1992 3.42773C48.4102 3.71289 48.5684 4.05273 48.6738 4.44727C48.7832 4.8418 48.8379 5.2793 48.8379 5.75977ZM47.1445 5.88281V5.75977C47.1445 5.49023 47.1211 5.24219 47.0742 5.01562C47.0312 4.78516 46.9609 4.58398 46.8633 4.41211C46.7695 4.24023 46.6445 4.10742 46.4883 4.01367C46.3359 3.91602 46.1504 3.86719 45.9316 3.86719C45.7012 3.86719 45.5039 3.9043 45.3398 3.97852C45.1797 4.05273 45.0488 4.16016 44.9473 4.30078C44.8457 4.44141 44.7695 4.60938 44.7188 4.80469C44.668 5 44.6367 5.2207 44.625 5.4668V6.28125C44.6445 6.57031 44.6992 6.83008 44.7891 7.06055C44.8789 7.28711 45.0176 7.4668 45.2051 7.59961C45.3926 7.73242 45.6387 7.79883 45.9434 7.79883C46.166 7.79883 46.3535 7.75 46.5059 7.65234C46.6582 7.55078 46.7812 7.41211 46.875 7.23633C46.9727 7.06055 47.041 6.85742 47.0801 6.62695C47.123 6.39648 47.1445 6.14844 47.1445 5.88281ZM51.668 2.66016V9H49.9746V2.66016H51.668ZM49.8691 1.00781C49.8691 0.761719 49.9551 0.558594 50.127 0.398438C50.2988 0.238281 50.5293 0.158203 50.8184 0.158203C51.1035 0.158203 51.332 0.238281 51.5039 0.398438C51.6797 0.558594 51.7676 0.761719 51.7676 1.00781C51.7676 1.25391 51.6797 1.45703 51.5039 1.61719C51.332 1.77734 51.1035 1.85742 50.8184 1.85742C50.5293 1.85742 50.2988 1.77734 50.127 1.61719C49.9551 1.45703 49.8691 1.25391 49.8691 1.00781ZM54.7148 4.01367V9H53.0273V2.66016H54.6094L54.7148 4.01367ZM54.4688 5.60742H54.0117C54.0117 5.13867 54.0723 4.7168 54.1934 4.3418C54.3145 3.96289 54.4844 3.64062 54.7031 3.375C54.9219 3.10547 55.1816 2.90039 55.4824 2.75977C55.7871 2.61523 56.127 2.54297 56.502 2.54297C56.7988 2.54297 57.0703 2.58594 57.3164 2.67188C57.5625 2.75781 57.7734 2.89453 57.9492 3.08203C58.1289 3.26953 58.2656 3.51758 58.3594 3.82617C58.457 4.13477 58.5059 4.51172 58.5059 4.95703V9H56.8066V4.95117C56.8066 4.66992 56.7676 4.45117 56.6895 4.29492C56.6113 4.13867 56.4961 4.0293 56.3438 3.9668C56.1953 3.90039 56.0117 3.86719 55.793 3.86719C55.5664 3.86719 55.3691 3.91211 55.2012 4.00195C55.0371 4.0918 54.9004 4.2168 54.791 4.37695C54.6855 4.5332 54.6055 4.7168 54.5508 4.92773C54.4961 5.13867 54.4688 5.36523 54.4688 5.60742ZM63.8027 2.66016H65.332V8.78906C65.332 9.36719 65.2031 9.85742 64.9453 10.2598C64.6914 10.666 64.3359 10.9727 63.8789 11.1797C63.4219 11.3906 62.8906 11.4961 62.2852 11.4961C62.0195 11.4961 61.7383 11.4609 61.4414 11.3906C61.1484 11.3203 60.8672 11.2109 60.5977 11.0625C60.332 10.9141 60.1094 10.7266 59.9297 10.5L60.6738 9.50391C60.8691 9.73047 61.0957 9.90625 61.3535 10.0312C61.6113 10.1602 61.8965 10.2246 62.209 10.2246C62.5137 10.2246 62.7715 10.168 62.9824 10.0547C63.1934 9.94531 63.3555 9.7832 63.4688 9.56836C63.582 9.35742 63.6387 9.10156 63.6387 8.80078V4.125L63.8027 2.66016ZM59.5371 5.90625V5.7832C59.5371 5.29883 59.5957 4.85938 59.7129 4.46484C59.834 4.06641 60.0039 3.72461 60.2227 3.43945C60.4453 3.1543 60.7148 2.93359 61.0312 2.77734C61.3477 2.62109 61.7051 2.54297 62.1035 2.54297C62.5254 2.54297 62.8789 2.62109 63.1641 2.77734C63.4492 2.93359 63.6836 3.15625 63.8672 3.44531C64.0508 3.73047 64.1934 4.06836 64.2949 4.45898C64.4004 4.8457 64.4824 5.26953 64.541 5.73047V6C64.4824 6.44141 64.3945 6.85156 64.2773 7.23047C64.1602 7.60938 64.0059 7.94141 63.8145 8.22656C63.623 8.50781 63.3848 8.72656 63.0996 8.88281C62.8184 9.03906 62.4824 9.11719 62.0918 9.11719C61.7012 9.11719 61.3477 9.03711 61.0312 8.87695C60.7188 8.7168 60.4512 8.49219 60.2285 8.20312C60.0059 7.91406 59.834 7.57422 59.7129 7.18359C59.5957 6.79297 59.5371 6.36719 59.5371 5.90625ZM61.2246 5.7832V5.90625C61.2246 6.16797 61.25 6.41211 61.3008 6.63867C61.3516 6.86523 61.4297 7.06641 61.5352 7.24219C61.6445 7.41406 61.7793 7.54883 61.9395 7.64648C62.1035 7.74023 62.2969 7.78711 62.5195 7.78711C62.8281 7.78711 63.0801 7.72266 63.2754 7.59375C63.4707 7.46094 63.6172 7.2793 63.7148 7.04883C63.8125 6.81836 63.8691 6.55273 63.8848 6.25195V5.48438C63.877 5.23828 63.8438 5.01758 63.7852 4.82227C63.7266 4.62305 63.6445 4.45312 63.5391 4.3125C63.4336 4.17188 63.2969 4.0625 63.1289 3.98438C62.9609 3.90625 62.7617 3.86719 62.5312 3.86719C62.3086 3.86719 62.1152 3.91797 61.9512 4.01953C61.791 4.11719 61.6562 4.25195 61.5469 4.42383C61.4414 4.5957 61.3613 4.79883 61.3066 5.0332C61.252 5.26367 61.2246 5.51367 61.2246 5.7832Z" fill="white"/>
<path d="M20.1504 7.24805C20.1504 7.12695 20.1152 7.01758 20.0449 6.91992C19.9746 6.82227 19.8438 6.73242 19.6523 6.65039C19.4648 6.56445 19.1934 6.48633 18.8379 6.41602C18.5176 6.3457 18.2188 6.25781 17.9414 6.15234C17.668 6.04297 17.4297 5.91211 17.2266 5.75977C17.0273 5.60742 16.8711 5.42773 16.7578 5.2207C16.6445 5.00977 16.5879 4.76953 16.5879 4.5C16.5879 4.23438 16.6445 3.98438 16.7578 3.75C16.875 3.51562 17.041 3.30859 17.2559 3.12891C17.4746 2.94531 17.7402 2.80273 18.0527 2.70117C18.3691 2.5957 18.7246 2.54297 19.1191 2.54297C19.6699 2.54297 20.1426 2.63086 20.5371 2.80664C20.9355 2.98242 21.2402 3.22461 21.4512 3.5332C21.666 3.83789 21.7734 4.18555 21.7734 4.57617H20.0859C20.0859 4.41211 20.0508 4.26562 19.9805 4.13672C19.9141 4.00391 19.8086 3.90039 19.6641 3.82617C19.5234 3.74805 19.3398 3.70898 19.1133 3.70898C18.9258 3.70898 18.7637 3.74219 18.627 3.80859C18.4902 3.87109 18.3848 3.95703 18.3105 4.06641C18.2402 4.17188 18.2051 4.28906 18.2051 4.41797C18.2051 4.51562 18.2246 4.60352 18.2637 4.68164C18.3066 4.75586 18.375 4.82422 18.4688 4.88672C18.5625 4.94922 18.6836 5.00781 18.832 5.0625C18.9844 5.11328 19.1719 5.16016 19.3945 5.20312C19.8516 5.29688 20.2598 5.41992 20.6191 5.57227C20.9785 5.7207 21.2637 5.92383 21.4746 6.18164C21.6855 6.43555 21.791 6.76953 21.791 7.18359C21.791 7.46484 21.7285 7.72266 21.6035 7.95703C21.4785 8.19141 21.2988 8.39648 21.0645 8.57227C20.8301 8.74414 20.5488 8.87891 20.2207 8.97656C19.8965 9.07031 19.5312 9.11719 19.125 9.11719C18.5352 9.11719 18.0352 9.01172 17.625 8.80078C17.2188 8.58984 16.9102 8.32227 16.6992 7.99805C16.4922 7.66992 16.3887 7.33398 16.3887 6.99023H17.9883C17.9961 7.2207 18.0547 7.40625 18.1641 7.54688C18.2773 7.6875 18.4199 7.78906 18.5918 7.85156C18.7676 7.91406 18.957 7.94531 19.1602 7.94531C19.3789 7.94531 19.5605 7.91602 19.7051 7.85742C19.8496 7.79492 19.959 7.71289 20.0332 7.61133C20.1113 7.50586 20.1504 7.38477 20.1504 7.24805ZM24.5332 0V9H22.8457V0H24.5332ZM24.293 5.60742H23.8301C23.834 5.16602 23.8926 4.75977 24.0059 4.38867C24.1191 4.01367 24.2812 3.68945 24.4922 3.41602C24.7031 3.13867 24.9551 2.92383 25.248 2.77148C25.5449 2.61914 25.873 2.54297 26.2324 2.54297C26.5449 2.54297 26.8281 2.58789 27.082 2.67773C27.3398 2.76367 27.5605 2.9043 27.7441 3.09961C27.9316 3.29102 28.0762 3.54297 28.1777 3.85547C28.2793 4.16797 28.3301 4.54688 28.3301 4.99219V9H26.6309V4.98047C26.6309 4.69922 26.5898 4.47852 26.5078 4.31836C26.4297 4.1543 26.3145 4.03906 26.1621 3.97266C26.0137 3.90234 25.8301 3.86719 25.6113 3.86719C25.3691 3.86719 25.1621 3.91211 24.9902 4.00195C24.8223 4.0918 24.6875 4.2168 24.5859 4.37695C24.4844 4.5332 24.4102 4.7168 24.3633 4.92773C24.3164 5.13867 24.293 5.36523 24.293 5.60742ZM29.3438 5.89453V5.77148C29.3438 5.30664 29.4102 4.87891 29.543 4.48828C29.6758 4.09375 29.8691 3.75195 30.123 3.46289C30.377 3.17383 30.6895 2.94922 31.0605 2.78906C31.4316 2.625 31.8574 2.54297 32.3379 2.54297C32.8184 2.54297 33.2461 2.625 33.6211 2.78906C33.9961 2.94922 34.3105 3.17383 34.5645 3.46289C34.8223 3.75195 35.0176 4.09375 35.1504 4.48828C35.2832 4.87891 35.3496 5.30664 35.3496 5.77148V5.89453C35.3496 6.35547 35.2832 6.7832 35.1504 7.17773C35.0176 7.56836 34.8223 7.91016 34.5645 8.20312C34.3105 8.49219 33.998 8.7168 33.627 8.87695C33.2559 9.03711 32.8301 9.11719 32.3496 9.11719C31.8691 9.11719 31.4414 9.03711 31.0664 8.87695C30.6953 8.7168 30.3809 8.49219 30.123 8.20312C29.8691 7.91016 29.6758 7.56836 29.543 7.17773C29.4102 6.7832 29.3438 6.35547 29.3438 5.89453ZM31.0312 5.77148V5.89453C31.0312 6.16016 31.0547 6.4082 31.1016 6.63867C31.1484 6.86914 31.2227 7.07227 31.3242 7.24805C31.4297 7.41992 31.5664 7.55469 31.7344 7.65234C31.9023 7.75 32.1074 7.79883 32.3496 7.79883C32.584 7.79883 32.7852 7.75 32.9531 7.65234C33.1211 7.55469 33.2559 7.41992 33.3574 7.24805C33.459 7.07227 33.5332 6.86914 33.5801 6.63867C33.6309 6.4082 33.6562 6.16016 33.6562 5.89453V5.77148C33.6562 5.51367 33.6309 5.27148 33.5801 5.04492C33.5332 4.81445 33.457 4.61133 33.3516 4.43555C33.25 4.25586 33.1152 4.11523 32.9473 4.01367C32.7793 3.91211 32.5762 3.86133 32.3379 3.86133C32.0996 3.86133 31.8965 3.91211 31.7285 4.01367C31.5645 4.11523 31.4297 4.25586 31.3242 4.43555C31.2227 4.61133 31.1484 4.81445 31.1016 5.04492C31.0547 5.27148 31.0312 5.51367 31.0312 5.77148ZM38.0742 3.87891V11.4375H36.3867V2.66016H37.9512L38.0742 3.87891ZM42.0879 5.75977V5.88281C42.0879 6.34375 42.0332 6.77148 41.9238 7.16602C41.8184 7.56055 41.6621 7.9043 41.4551 8.19727C41.248 8.48633 40.9902 8.71289 40.6816 8.87695C40.377 9.03711 40.0254 9.11719 39.627 9.11719C39.2402 9.11719 38.9043 9.03906 38.6191 8.88281C38.334 8.72656 38.0938 8.50781 37.8984 8.22656C37.707 7.94141 37.5527 7.61133 37.4355 7.23633C37.3184 6.86133 37.2285 6.45898 37.166 6.0293V5.70703C37.2285 5.24609 37.3184 4.82422 37.4355 4.44141C37.5527 4.05469 37.707 3.7207 37.8984 3.43945C38.0938 3.1543 38.332 2.93359 38.6133 2.77734C38.8984 2.62109 39.2324 2.54297 39.6152 2.54297C40.0176 2.54297 40.3711 2.61914 40.6758 2.77148C40.9844 2.92383 41.2422 3.14258 41.4492 3.42773C41.6602 3.71289 41.8184 4.05273 41.9238 4.44727C42.0332 4.8418 42.0879 5.2793 42.0879 5.75977ZM40.3945 5.88281V5.75977C40.3945 5.49023 40.3711 5.24219 40.3242 5.01562C40.2812 4.78516 40.2109 4.58398 40.1133 4.41211C40.0195 4.24023 39.8945 4.10742 39.7383 4.01367C39.5859 3.91602 39.4004 3.86719 39.1816 3.86719C38.9512 3.86719 38.7539 3.9043 38.5898 3.97852C38.4297 4.05273 38.2988 4.16016 38.1973 4.30078C38.0957 4.44141 38.0195 4.60938 37.9688 4.80469C37.918 5 37.8867 5.2207 37.875 5.4668V6.28125C37.8945 6.57031 37.9492 6.83008 38.0391 7.06055C38.1289 7.28711 38.2676 7.4668 38.4551 7.59961C38.6426 7.73242 38.8887 7.79883 39.1934 7.79883C39.416 7.79883 39.6035 7.75 39.7559 7.65234C39.9082 7.55078 40.0312 7.41211 40.125 7.23633C40.2227 7.06055 40.291 6.85742 40.3301 6.62695C40.373 6.39648 40.3945 6.14844 40.3945 5.88281Z" fill="#FFBFBF"/>
</svg>
